<svg width="12" height="12" viewBox="0 0 12 12" fill="none" xmlns="http://www.w3.org/2000/svg">
<g clip-path="url(#clip0_14_262)">
<path d="M5.0035 1.5L4 1.493C3.99815 1.09639 3.8393 0.716654 3.55819 0.436862C3.27709 0.15707 2.89661 -4.31863e-06 2.5 0L1.5 0C1.10218 0 0.720644 0.158035 0.43934 0.43934C0.158035 0.720644 0 1.10218 0 1.5L0 2.5C-1.08131e-06 2.89722 0.157554 3.27822 0.438102 3.55942C0.71865 3.84063 1.09928 3.99907 1.4965 4L1.4895 4.9965C1.48904 5.0622 1.50153 5.12735 1.52627 5.18822C1.551 5.2491 1.58749 5.3045 1.63364 5.35126C1.6798 5.39802 1.73472 5.43522 1.79527 5.46075C1.85581 5.48627 1.9208 5.49961 1.9865 5.5H1.9895C2.1215 5.5 2.24815 5.44781 2.34182 5.35479C2.43549 5.26178 2.48858 5.1355 2.4895 5.0035L2.4965 4H2.5C2.89782 4 3.27936 3.84196 3.56066 3.56066C3.84196 3.27936 4 2.89782 4 2.5V2.493L4.9965 2.5H5C5.06566 2.50023 5.13072 2.48752 5.19147 2.46261C5.25223 2.43769 5.30747 2.40106 5.35407 2.35479C5.40066 2.30852 5.43768 2.25353 5.46302 2.19296C5.48836 2.13238 5.50152 2.06741 5.50175 2.00175C5.50198 1.93609 5.48927 1.87103 5.46436 1.81028C5.43944 1.74952 5.40281 1.69428 5.35654 1.64768C5.31027 1.60109 5.25528 1.56407 5.19471 1.53873C5.13413 1.51339 5.06916 1.50023 5.0035 1.5ZM3 2.5C3 2.63261 2.94732 2.75979 2.85355 2.85355C2.75979 2.94732 2.63261 3 2.5 3H1.5C1.36739 3 1.24021 2.94732 1.14645 2.85355C1.05268 2.75979 1 2.63261 1 2.5V1.5C1 1.36739 1.05268 1.24021 1.14645 1.14645C1.24021 1.05268 1.36739 1 1.5 1H2.5C2.63261 1 2.75979 1.05268 2.85355 1.14645C2.94732 1.24021 3 1.36739 3 1.5V2.5Z" fill="#454545"/>
<path d="M10.4999 -7.62939e-06H9.49992C9.1027 -8.71071e-06 8.7217 0.157546 8.4405 0.438094C8.15929 0.718642 8.00085 1.09927 7.99992 1.49649L7.00292 1.48949H6.99992C6.86731 1.48903 6.73995 1.54126 6.64586 1.6347C6.55176 1.72814 6.49864 1.85513 6.49817 1.98774C6.49771 2.12035 6.54994 2.24771 6.64338 2.34181C6.73682 2.4359 6.86381 2.48903 6.99642 2.48949L7.99992 2.49649V2.49999C7.99992 2.89782 8.15796 3.27935 8.43926 3.56065C8.72057 3.84196 9.1021 3.99999 9.49992 3.99999H9.50692L9.49992 4.99649C9.49946 5.06215 9.51194 5.12726 9.53664 5.1881C9.56134 5.24894 9.59779 5.30432 9.64389 5.35107C9.69 5.39783 9.74486 5.43504 9.80534 5.4606C9.86583 5.48615 9.93076 5.49953 9.99642 5.49999H9.99992C10.1319 5.5 10.2586 5.4478 10.3522 5.35479C10.4459 5.26177 10.499 5.13549 10.4999 5.00349L10.5069 3.99999C10.9035 3.99814 11.2833 3.83929 11.5631 3.55819C11.8429 3.27708 11.9999 2.89661 11.9999 2.49999V1.49999C11.9999 1.10217 11.8419 0.720637 11.5606 0.439332C11.2793 0.158028 10.8977 -7.62939e-06 10.4999 -7.62939e-06V-7.62939e-06ZM10.9999 2.49999C10.9999 2.6326 10.9472 2.75978 10.8535 2.85355C10.7597 2.94731 10.6325 2.99999 10.4999 2.99999H9.49992C9.36731 2.99999 9.24014 2.94731 9.14637 2.85355C9.0526 2.75978 8.99992 2.6326 8.99992 2.49999V1.49999C8.99992 1.36738 9.0526 1.24021 9.14637 1.14644C9.24014 1.05267 9.36731 0.999992 9.49992 0.999992H10.4999C10.6325 0.999992 10.7597 1.05267 10.8535 1.14644C10.9472 1.24021 10.9999 1.36738 10.9999 1.49999V2.49999Z" fill="#454545"/>
<path d="M10.5034 7.99969L10.5104 7.00269C10.5108 6.93703 10.4983 6.87194 10.4735 6.81112C10.4487 6.75031 10.4123 6.69497 10.3661 6.64826C10.3199 6.60155 10.265 6.56439 10.2045 6.5389C10.144 6.51341 10.0791 6.50009 10.0134 6.49969H10.0104C9.87842 6.49969 9.75177 6.55189 9.6581 6.6449C9.56443 6.73791 9.51135 6.86419 9.51042 6.99619L9.50342 7.99969H9.49992C9.1021 7.99969 8.72057 8.15773 8.43926 8.43903C8.15796 8.72034 7.99992 9.10187 7.99992 9.49969V9.50669L7.00342 9.49969H6.99992C6.86731 9.49923 6.73995 9.55146 6.64586 9.6449C6.55176 9.73834 6.49864 9.86533 6.49817 9.99794C6.49771 10.1305 6.54994 10.2579 6.64338 10.352C6.73682 10.4461 6.86381 10.4992 6.99642 10.4997L7.99992 10.5067C8.00177 10.9033 8.16062 11.283 8.44173 11.5628C8.72283 11.8426 9.10331 11.9997 9.49992 11.9997H10.4999C10.8977 11.9997 11.2793 11.8417 11.5606 11.5603C11.8419 11.279 11.9999 10.8975 11.9999 10.4997V9.49969C11.9999 9.10247 11.8424 8.72147 11.5618 8.44027C11.2813 8.15906 10.9006 8.00062 10.5034 7.99969ZM10.9999 10.4997C10.9999 10.6323 10.9472 10.7595 10.8535 10.8532C10.7597 10.947 10.6325 10.9997 10.4999 10.9997H9.49992C9.36731 10.9997 9.24014 10.947 9.14637 10.8532C9.0526 10.7595 8.99992 10.6323 8.99992 10.4997V9.49969C8.99992 9.36708 9.0526 9.23991 9.14637 9.14614C9.24014 9.05237 9.36731 8.99969 9.49992 8.99969H10.4999C10.6325 8.99969 10.7597 9.05237 10.8535 9.14614C10.9472 9.23991 10.9999 9.36708 10.9999 9.49969V10.4997Z" fill="#454545"/>
<path d="M5.0035 9.51019L4 9.50319V9.49969C4 9.10187 3.84196 8.72034 3.56066 8.43903C3.27936 8.15773 2.89782 7.99969 2.5 7.99969H2.493L2.5 7.00319C2.50046 6.93753 2.48798 6.87242 2.46328 6.81158C2.43858 6.75075 2.40214 6.69537 2.35603 6.64861C2.30993 6.60186 2.25506 6.56464 2.19458 6.53909C2.13409 6.51354 2.06916 6.50015 2.0035 6.49969H2C1.868 6.49969 1.74135 6.55189 1.64768 6.6449C1.55401 6.73791 1.50092 6.86419 1.5 6.99619L1.493 7.99969C1.09639 8.00154 0.716654 8.1604 0.436862 8.4415C0.15707 8.7226 -4.31863e-06 9.10308 0 9.49969L0 10.4997C0 10.8975 0.158035 11.279 0.43934 11.5603C0.720644 11.8417 1.10218 11.9997 1.5 11.9997H2.5C2.89722 11.9997 3.27822 11.8421 3.55942 11.5616C3.84063 11.281 3.99907 10.9004 4 10.5032L4.997 10.5102H5C5.13261 10.5107 5.25997 10.4584 5.35407 10.365C5.44816 10.2715 5.50129 10.1445 5.50175 10.0119C5.50221 9.87933 5.44998 9.75197 5.35654 9.65787C5.2631 9.56378 5.13611 9.51065 5.0035 9.51019ZM3 10.4997C3 10.6323 2.94732 10.7595 2.85355 10.8532C2.75979 10.947 2.63261 10.9997 2.5 10.9997H1.5C1.36739 10.9997 1.24021 10.947 1.14645 10.8532C1.05268 10.7595 1 10.6323 1 10.4997V9.49969C1 9.36708 1.05268 9.23991 1.14645 9.14614C1.24021 9.05237 1.36739 8.99969 1.5 8.99969H2.5C2.63261 8.99969 2.75979 9.05237 2.85355 9.14614C2.94732 9.23991 3 9.36708 3 9.49969V10.4997Z" fill="#454545"/>
</g>
<defs>
<clipPath id="clip0_14_262">
<rect width="12" height="12" fill="white"/>
</clipPath>
</defs>
</svg>
