<svg width="10" height="10" viewBox="0 0 10 10" fill="none" xmlns="http://www.w3.org/2000/svg">
<path d="M4.99987 6.66667C5.19389 6.66704 5.38531 6.62226 5.55903 6.53583L6.39237 6.11917C6.81711 5.90827 7.08504 5.47423 7.08321 5.00001V3.76376C7.08467 3.28995 6.81678 2.85647 6.39237 2.64585L5.55903 2.22919C5.20694 2.05419 4.79321 2.05419 4.44112 2.22919L3.60778 2.64585C3.18321 2.85636 2.91514 3.28987 2.91653 3.76376V5.00001C2.915 5.47394 3.18287 5.90757 3.60737 6.11835L4.44071 6.53501C4.61434 6.62171 4.80578 6.66679 4.99987 6.66667ZM3.74987 5.00001V3.76376C3.75053 3.72126 3.7577 3.67909 3.77112 3.63876L4.67946 4.09292C4.88117 4.19374 5.11858 4.19374 5.3203 4.09292L6.22863 3.63876C6.24205 3.67909 6.24922 3.72126 6.24989 3.76376V5.00001C6.25055 5.1581 6.16115 5.30278 6.01947 5.37292L5.18613 5.78958C5.06863 5.84772 4.93073 5.84772 4.81322 5.78958L3.97989 5.37292C3.83834 5.30267 3.74912 5.15802 3.74987 5.00001ZM7.91653 9.16667H6.78778L8.24069 7.82417C10.0306 6.03429 10.0307 3.13229 8.24078 1.34235C6.4509 -0.447588 3.54893 -0.447607 1.75899 1.34226C-0.0309546 3.13212 -0.0309938 6.03415 1.75889 7.82407C1.76281 7.828 3.21196 9.16667 3.21196 9.16667H2.08321C1.85309 9.16667 1.66655 9.35321 1.66655 9.58333C1.66655 9.81345 1.85309 9.99999 2.08321 9.99999H7.91655C8.14666 9.99999 8.33321 9.81345 8.33321 9.58333C8.33321 9.35323 8.14664 9.16667 7.91653 9.16667ZM2.34821 1.93167C3.80946 0.463857 6.18393 0.458545 7.65174 1.91979C9.11955 3.38104 9.12487 5.75552 7.66362 7.22333L6.00321 8.75708C5.43649 9.29124 4.55074 9.28813 3.9878 8.74999L2.34821 7.23499C0.885999 5.76958 0.886018 3.3971 2.34821 1.93167Z" fill="white"/>
</svg>
